<?xml version="1.0" encoding="UTF-8" standalone="no"?><!DOCTYPE svg PUBLIC "-//W3C//DTD SVG 1.1//EN" "http://www.w3.org/Graphics/SVG/1.1/DTD/svg11.dtd"><svg width="100%" height="100%" viewBox="0 0 1001 1001" version="1.1" xmlns="http://www.w3.org/2000/svg" xmlns:xlink="http://www.w3.org/1999/xlink" xml:space="preserve" xmlns:serif="http://www.serif.com/" style="fill-rule:evenodd;clip-rule:evenodd;stroke-linecap:round;stroke-linejoin:round;stroke-miterlimit:1.5;"><rect id="square-grid-svg" serif:id="square grid svg" x="0.71" y="0.092" width="1000" height="1000" style="fill:none;"/><clipPath id="_clip1"><rect x="0.71" y="0.092" width="1000" height="1000"/></clipPath><g clip-path="url(#_clip1)"><g id="vertical" opacity="0.08"><path d="M0.71,1127.28l0,-1254.37" style="fill:none;stroke:#ff0b6d;stroke-width:3.54px;"/><path d="M77.633,1127.28l0,-1254.37" style="fill:none;stroke:#ff0b6d;stroke-width:3.54px;"/><path d="M231.479,1127.28l0,-1254.37" style="fill:none;stroke:#ff0b6d;stroke-width:3.54px;"/><path d="M154.556,1127.28l0,-1254.37" style="fill:none;stroke:#ff0b6d;stroke-width:3.54px;"/><path d="M308.402,1127.28l0,-1254.37" style="fill:none;stroke:#ff0b6d;stroke-width:3.54px;"/><path d="M385.325,1127.28l0,-1254.37" style="fill:none;stroke:#ff0b6d;stroke-width:3.54px;"/><path d="M462.249,1127.28l-0,-1254.37" style="fill:none;stroke:#ff0b6d;stroke-width:3.54px;"/><path d="M539.172,1127.28l-0,-1254.37" style="fill:none;stroke:#ff0b6d;stroke-width:3.54px;"/><path d="M616.095,1127.28l-0,-1254.37" style="fill:none;stroke:#ff0b6d;stroke-width:3.54px;"/><path d="M693.018,1127.28l-0,-1254.37" style="fill:none;stroke:#ff0b6d;stroke-width:3.54px;"/><path d="M769.941,1127.28l-0,-1254.37" style="fill:none;stroke:#ff0b6d;stroke-width:3.54px;"/><path d="M846.864,1127.28l-0,-1254.37" style="fill:none;stroke:#ff0b6d;stroke-width:3.54px;"/><path d="M923.787,1127.28l0,-1254.37" style="fill:none;stroke:#ff0b6d;stroke-width:3.54px;"/><path d="M1000.71,1127.28l0,-1254.37" style="fill:none;stroke:#ff0b6d;stroke-width:3.54px;"/></g><g id="horizontal" opacity="0.08"><path d="M1162.93,1000.09l-1254.37,0" style="fill:none;stroke:#ff0b6d;stroke-width:3.75px;"/><path d="M1162.93,923.169l-1254.37,0" style="fill:none;stroke:#ff0b6d;stroke-width:3.75px;"/><path d="M1162.93,769.323l-1254.37,0" style="fill:none;stroke:#ff0b6d;stroke-width:3.75px;"/><path d="M1162.93,846.246l-1254.37,0" style="fill:none;stroke:#ff0b6d;stroke-width:3.75px;"/><path d="M1162.93,692.4l-1254.37,0" style="fill:none;stroke:#ff0b6d;stroke-width:3.75px;"/><path d="M1162.93,615.477l-1254.37,0" style="fill:none;stroke:#ff0b6d;stroke-width:3.75px;"/><path d="M1162.93,538.554l-1254.37,0" style="fill:none;stroke:#ff0b6d;stroke-width:3.75px;"/><path d="M1162.93,461.631l-1254.37,-0" style="fill:none;stroke:#ff0b6d;stroke-width:3.75px;"/><path d="M1162.93,384.708l-1254.37,-0" style="fill:none;stroke:#ff0b6d;stroke-width:3.75px;"/><path d="M1162.93,307.785l-1254.37,-0" style="fill:none;stroke:#ff0b6d;stroke-width:3.75px;"/><path d="M1162.93,230.862l-1254.37,-0" style="fill:none;stroke:#ff0b6d;stroke-width:3.75px;"/><path d="M1162.93,153.939l-1254.37,-0" style="fill:none;stroke:#ff0b6d;stroke-width:3.75px;"/><path d="M1162.93,77.016l-1254.37,-0" style="fill:none;stroke:#ff0b6d;stroke-width:3.75px;"/><path d="M1162.93,0.092l-1254.37,0" style="fill:none;stroke:#ff0b6d;stroke-width:3.75px;"/></g></g></svg>